<svg xmlns="http://www.w3.org/2000/svg" width="396" height="99.64994704776606" viewBox="-2 -11 371.89473684210526 93.58406776176436" class="looka-1j8o68f">
  <rect width="100%" height="100%" fill="white" /><g id="SvgjsG3718" featurekey="Df7oLJ-0" transform="matrix(0.968286, 0, 0, 0.968286, 3.720654, -10.115585)" fill="#ffffff">
    <g>
      <g>
        <path d="M95.3,51.9l-6.8,0.4l-4.8-2.8c-0.4-0.2-1-0.1-1.2,0.3l-5,8.6c-0.2,0.4-0.1,1,0.3,1.2l4.8,2.8l3.1,6.1     c0.7,1.5,2.9,1.6,3.7,0.1L97.2,55C98.1,53.6,97,51.8,95.3,51.9z" style="fill: rgb(0, 0, 0);" />
        <path d="M78.8,34.7L33.3,8.3c-3.2-1.8-7.2-0.8-9,2.4l-9.5,16.4c-1.8,3.2-0.8,7.2,2.4,9l45.5,26.4c3.2,1.8,7.2,0.8,9-2.4l9.5-16.4     C83,40.6,81.9,36.6,78.8,34.7z" style="fill: rgb(0, 0, 0);" />
        <path d="M29.9,48.7c-1.8,3.1-1.5,6.9,0.4,9.7l-7,12.1C23,71,22.5,71.2,22,71.3l-12,0.4v-9.3c0-2.1-1.7-3.8-3.8-3.8     c-2.1,0-3.8,1.7-3.8,3.8v26.5c0,2.1,1.7,3.8,3.8,3.8c2.1,0,3.8-1.7,3.8-3.8v-9.6l16.4-0.5c0.5,0,0.9-0.3,1.2-0.7l9.1-15.8     c3.4,0.3,6.8-1.3,8.6-4.4c0-0.1,0.1-0.1,0.1-0.2l-15.6-9C29.9,48.6,29.9,48.6,29.9,48.7z" style="fill: rgb(0, 0, 0);" />
      </g>
    </g>
  </g>
  <g id="SvgjsG3719" featurekey="Ua4uQk-0" transform="matrix(3.284441, 0, 0, 3.284441, 101.102592, -1.683923)" fill="#ffffff">
    <path d="M7.3535 9.766 c2.6367 0 4.8242 1.9531 4.8242 5.2344 s-2.1875 5.2344 -4.8242 5.2344 c-1.3867 0 -2.5977 -0.55664 -3.1641 -1.543 l-0.068359 1.3086 l-2.666 0 l0 -15 l2.8125 0 l0 6.1816 c0.58594 -0.9082 1.7578 -1.416 3.0859 -1.416 z M6.6992 17.9004 c1.4941 0 2.666 -1.1035 2.666 -2.9004 c0 -1.8066 -1.1719 -2.9102 -2.666 -2.9102 c-1.4844 0 -2.6563 1.1523 -2.6563 2.9102 s1.1621 2.9004 2.6563 2.9004 z M19.71433984375 9.766 c2.6367 0 4.8242 1.9531 4.8242 5.2344 s-2.1875 5.2344 -4.8242 5.2344 c-1.3867 0 -2.5977 -0.55664 -3.1641 -1.543 l-0.068359 1.3086 l-2.666 0 l0 -15 l2.8125 0 l0 6.1816 c0.58594 -0.9082 1.7578 -1.416 3.0859 -1.416 z M19.06003984375 17.9004 c1.4941 0 2.666 -1.1035 2.666 -2.9004 c0 -1.8066 -1.1719 -2.9102 -2.666 -2.9102 c-1.4844 0 -2.6563 1.1523 -2.6563 2.9102 s1.1621 2.9004 2.6563 2.9004 z M29.7118796875 20.19531 c-2.2559 0 -4.0039 -0.88867 -4.3652 -2.793 l2.3535 -0.66406 c0.30273 1.0742 1.0645 1.4941 2.0117 1.4941 c0.69336 0 1.4453 -0.21484 1.4258 -1.0059 c-0.0097656 -1.0449 -1.5918 -1.1328 -3.1836 -1.6992 c-1.2012 -0.41992 -2.3535 -1.0645 -2.3535 -2.7539 c0 -2.0605 1.709 -3.0078 3.9355 -3.0078 c1.9531 0 3.584 0.74219 3.9746 2.6563 l-2.1777 0.48828 c-0.30273 -0.9375 -0.9668 -1.2695 -1.7871 -1.2695 c-0.74219 0 -1.377 0.26367 -1.377 0.88867 c0 0.79102 1.1621 0.94727 2.4219 1.2891 c1.5527 0.41992 3.252 1.0938 3.252 3.2422 c0 2.3047 -1.9629 3.1348 -4.1309 3.1348 z M39.92432265625 20.18555 c-3.1543 0 -5.3809 -2.0996 -5.3809 -5.2148 c0 -3.125 2.2266 -5.2051 5.3809 -5.2051 c2.5391 0 4.4434 1.3184 4.9316 3.6914 l-2.5977 0.2832 c-0.3125 -1.2012 -1.1816 -1.7578 -2.3633 -1.7578 c-1.5137 0 -2.5391 1.1914 -2.5391 2.9883 c0 1.7871 1.0254 2.9883 2.5391 2.9883 c1.1816 0 2.0508 -0.56641 2.3633 -1.7578 l2.5977 0.2832 c-0.48828 2.373 -2.4414 3.7012 -4.9316 3.7012 z M51.054675 20.19531 c-3.1934 0 -5.498 -1.9434 -5.498 -5.2246 c0 -3.2617 2.2852 -5.2051 5.498 -5.2051 c3.2324 0 5.5078 1.9434 5.5078 5.2051 c0 3.2813 -2.2852 5.2246 -5.5078 5.2246 z M51.025375 17.959 c1.6309 0 2.7441 -1.1914 2.7441 -2.9883 s-1.1133 -2.9883 -2.7441 -2.9883 c-1.5723 0 -2.6758 1.1914 -2.6758 2.9883 s1.1035 2.9883 2.6758 2.9883 z M64.06010859375 9.766 c2.6465 0 4.834 1.9434 4.834 5.2344 s-2.1875 5.2344 -4.834 5.2344 c-1.3086 0 -2.4805 -0.50781 -3.0762 -1.4258 l0 6.0742 l-2.8125 0 l0 -14.922 l2.666 0 l0.078125 1.3477 c0.55664 -0.99609 1.7773 -1.543 3.1445 -1.543 z M63.42530859375 17.9004 c1.4746 0 2.6563 -1.0742 2.6563 -2.9004 s-1.1816 -2.9004 -2.6563 -2.9004 c-1.5039 0 -2.6758 1.1426 -2.6758 2.9004 s1.1719 2.9004 2.6758 2.9004 z M79.9751484375 14.834 l-0.029297 0.67383 l-7.4414 0 c0.11719 1.6699 1.2305 2.4707 2.5684 2.4707 c1.0059 0 1.7871 -0.46875 2.168 -1.3574 l2.5781 0.38086 c-0.66406 2.0313 -2.4707 3.1934 -4.7266 3.1934 c-3.2422 0 -5.3613 -1.9141 -5.3613 -5.2148 s2.1777 -5.2344 5.2734 -5.2344 c2.8418 0 4.9609 1.5723 4.9707 5.0879 z M75.0244484375 11.7383 c-1.2793 0 -2.168 0.5957 -2.4414 1.9336 l4.6094 0 c-0.14648 -1.2793 -1.0156 -1.9336 -2.168 -1.9336 z" style="fill: rgb(0, 0, 0);" />
  </g>
</svg>