<svg xmlns="http://www.w3.org/2000/svg" version="1.1" xmlns:xlink="http://www.w3.org/1999/xlink" width="1000" height="1000"><g clip-path="url(#SvgjsClipPath1362)"><rect width="1000" height="1000" fill="#ffffff"></rect><g transform="matrix(7.142857142857143,0,0,7.142857142857143,150,189.28571428571428)"><svg xmlns="http://www.w3.org/2000/svg" version="1.1" xmlns:xlink="http://www.w3.org/1999/xlink" width="98.0753px" height="87.937px"><svg xmlns="http://www.w3.org/2000/svg" viewBox="6.0445 -2.9395 92.1053 82.5841" width="98.0753px" height="87.937px">
  <g id="SvgjsG3718" featurekey="Df7oLJ-0" transform="matrix(0.9682860374450684, 0, 0, 0.9682860374450684, 3.720654010772705, -10.115585327148438)" fill="#ffffff">
    <g>
      <g>
        <path d="M95.3,51.9l-6.8,0.4l-4.8-2.8c-0.4-0.2-1-0.1-1.2,0.3l-5,8.6c-0.2,0.4-0.1,1,0.3,1.2l4.8,2.8l3.1,6.1     c0.7,1.5,2.9,1.6,3.7,0.1L97.2,55C98.1,53.6,97,51.8,95.3,51.9z" style="fill: rgb(0, 0, 0);"></path>
        <path d="M78.8,34.7L33.3,8.3c-3.2-1.8-7.2-0.8-9,2.4l-9.5,16.4c-1.8,3.2-0.8,7.2,2.4,9l45.5,26.4c3.2,1.8,7.2,0.8,9-2.4l9.5-16.4     C83,40.6,81.9,36.6,78.8,34.7z" style="fill: rgb(0, 0, 0);"></path>
        <path d="M29.9,48.7c-1.8,3.1-1.5,6.9,0.4,9.7l-7,12.1C23,71,22.5,71.2,22,71.3l-12,0.4v-9.3c0-2.1-1.7-3.8-3.8-3.8     c-2.1,0-3.8,1.7-3.8,3.8v26.5c0,2.1,1.7,3.8,3.8,3.8c2.1,0,3.8-1.7,3.8-3.8v-9.6l16.4-0.5c0.5,0,0.9-0.3,1.2-0.7l9.1-15.8     c3.4,0.3,6.8-1.3,8.6-4.4c0-0.1,0.1-0.1,0.1-0.2l-15.6-9C29.9,48.6,29.9,48.6,29.9,48.7z" style="fill: rgb(0, 0, 0);"></path>
      </g>
    </g>
  </g>
</svg></svg></g></g><defs><clipPath id="SvgjsClipPath1362"><rect width="1000" height="1000" x="0" y="0" rx="350" ry="350"></rect></clipPath></defs></svg>